<svg width="402" height="92" viewBox="0 0 402 92" fill="none" xmlns="http://www.w3.org/2000/svg">
<g clip-path="url(#clip0_45_190)">
<g clip-path="url(#clip1_45_190)">
<path d="M0 45.9999C0 20.5944 20.3961 0 45.557 0C70.7178 0 91.114 20.5944 91.114 45.9999C91.114 71.4053 70.7178 91.9998 45.557 91.9998C20.3961 91.9998 0 71.4053 0 45.9999ZM45.557 88.6595C68.8905 88.6595 87.8059 69.5603 87.8059 45.9999C87.8059 22.4395 68.8905 3.34025 45.557 3.34119C22.2234 3.34119 3.30809 22.4404 3.30902 45.9999C3.30902 69.5603 22.2243 88.6595 45.557 88.6595Z" fill="#DCBE72"/>
<path d="M45.5571 90.16C69.7111 90.16 89.2919 70.3889 89.2919 46C89.2919 21.6111 69.7111 1.84 45.5571 1.84C21.403 1.84 1.82227 21.6111 1.82227 46C1.82227 70.3889 21.403 90.16 45.5571 90.16Z" fill="#DCBE72"/>
<g clip-path="url(#clip2_45_190)">
<g clip-path="url(#clip3_45_190)">
<g clip-path="url(#clip4_45_190)">
<g clip-path="url(#clip5_45_190)">
<g clip-path="url(#clip6_45_190)">
<g clip-path="url(#clip7_45_190)">
<g clip-path="url(#clip8_45_190)">
<path d="M67.2972 53.7184C67.5723 53.2512 67.719 52.7184 67.7222 52.1749C67.7222 50.7287 66.7286 49.5209 65.3979 49.1875C65.2795 47.7852 64.7764 46.444 63.945 45.3144C63.1136 44.1849 61.9869 43.3117 60.6912 42.7928L56.2575 41.0024V42.7882C56.2575 43.3655 56.0687 43.9064 55.7446 44.3463L51.1717 39.0692C50.957 38.8229 50.693 38.6255 50.397 38.49C50.1011 38.3546 49.78 38.2842 49.4551 38.2835C49.071 38.2828 48.6931 38.3805 48.3567 38.5675C48.0202 38.7544 47.7362 39.0245 47.5313 39.3524L45.155 37.4331L47.6383 35.9058C47.8683 35.7655 48.0683 35.5803 48.2265 35.361C48.3847 35.1416 48.4979 34.8926 48.5595 34.6285C48.6211 34.3644 48.6298 34.0905 48.5852 33.8229C48.5405 33.5554 48.4434 33.2995 48.2994 33.0704C48.0945 32.7448 47.8032 32.4838 47.4587 32.3172L37.9651 27.6975C37.6374 27.5367 37.2747 27.4618 36.9108 27.4797C36.5468 27.4977 36.1931 27.6079 35.8824 27.8001C35.5698 27.9897 35.3112 28.2578 35.1318 28.5784C34.9525 28.899 34.8585 29.261 34.859 29.6292L34.8582 33.3544L29.1832 31.4435C28.8706 31.3397 28.5381 31.312 28.2129 31.3629C27.8877 31.4138 27.5791 31.5418 27.3124 31.7364C27.0456 31.931 26.8283 32.1866 26.6783 32.4823C26.5283 32.778 26.4498 33.1055 26.4492 33.4377V33.5929C26.4492 33.6546 26.4515 33.7171 26.4576 33.7835L27.2067 42.0975L22.9357 49.0247C22.7343 49.3515 22.6276 49.7287 22.6277 50.1136C22.6277 50.2934 22.6582 50.4647 22.701 50.6314H21.8633V53.1288L25.6849 60.8462V64.5228H64.6649V61.0307C67.3324 60.0745 69.2508 57.5077 69.2508 54.4902V53.7184H67.2972ZM57.7578 43.2705L60.1226 44.226C61.1176 44.625 61.988 45.2869 62.6426 46.1423C63.2972 46.9977 63.7119 48.0151 63.8433 49.0879H60.079V50.6314H64.6649C65.508 50.6314 66.1935 51.3237 66.1935 52.1749C66.1935 53.0262 65.508 53.7184 64.6649 53.7184H52.4359C51.5929 53.7184 50.9073 53.0262 50.9073 52.1749C50.9073 51.3237 51.5929 50.6314 52.4359 50.6314H57.0218V49.0879H53.2117C53.2346 48.5618 53.415 48.0551 53.729 47.6347C54.0429 47.2142 54.4758 46.8996 54.9704 46.7326C55.7131 46.4832 56.37 46.025 56.8638 45.4117C57.3576 44.7985 57.6677 44.0556 57.7578 43.2705ZM50.0207 40.0863L54.5057 45.2616C54.4995 45.2639 54.4934 45.2678 54.4873 45.2693C53.6706 45.544 52.9598 46.0705 52.4552 46.7747C51.9506 47.4789 51.6776 48.3253 51.6746 49.1944V49.1968C51.2846 49.2996 50.9186 49.4793 50.5976 49.7255C50.2766 49.9717 50.007 50.2796 49.8044 50.6314H47.4029L47.9196 50.1097C48.3675 49.6559 48.6151 49.054 48.6151 48.4142C48.6155 48.0196 48.5191 47.631 48.3347 47.283C48.1503 46.9351 47.8835 46.6386 47.558 46.42L45.7229 45.1845L48.8176 40.1843C49.0706 39.7745 49.7058 39.722 50.0207 40.0863ZM37.6059 49.0239L34.035 43.2319L39.0344 41.5495C39.1684 41.5042 39.3112 41.4917 39.4509 41.5131C39.5906 41.5346 39.7232 41.5893 39.8378 41.6728C39.9524 41.7563 40.0457 41.8662 40.1098 41.9933C40.174 42.1204 40.2073 42.2612 40.2069 42.4039V42.7635C40.2069 42.8167 40.2023 42.8708 40.1924 42.9248L38.8044 50.6314H37.8406C37.8841 50.4647 37.9139 50.2934 37.9139 50.1136C37.9139 49.7285 37.8077 49.3519 37.6059 49.0239ZM41.5146 44.2074L46.7089 47.7042C46.8133 47.774 46.901 47.8665 46.9656 47.9748C47.0303 48.0831 47.0702 48.2045 47.0826 48.3304C47.095 48.4562 47.0794 48.5832 47.0371 48.7023C46.9948 48.8213 46.9268 48.9293 46.8381 49.0185L45.2406 50.6314H40.3582L41.5146 44.2074ZM46.7135 40.669L44.4488 44.3278L41.7355 42.5011V42.4039C41.7355 41.5187 41.2693 40.723 40.5141 40.2877L43.7655 38.2881L46.7135 40.669ZM36.3876 29.6292C36.3876 29.4208 36.4969 29.2294 36.678 29.1183C36.7714 29.0612 36.8774 29.0285 36.9864 29.0231C37.0954 29.0177 37.204 29.0398 37.3025 29.0874L46.7953 33.7071C46.8824 33.7499 46.9563 33.8158 47.0093 33.8977C47.0438 33.9522 47.0671 34.0131 47.078 34.0768C47.0889 34.1406 47.0871 34.2059 47.0727 34.2689C47.0571 34.3347 47.0286 34.3967 46.989 34.4513C46.9494 34.5059 46.8994 34.552 46.8419 34.5869L37.2016 40.5177C37.081 40.5926 36.9362 40.6172 36.798 40.5862C36.6598 40.5553 36.5389 40.4712 36.461 40.3518C36.4116 40.2737 36.3853 40.1829 36.3853 40.0902L36.3876 29.6292ZM27.9779 33.4377C27.9779 33.0712 28.3646 32.8003 28.7032 32.9091L34.8582 34.9812L34.8567 40.0902C34.8567 40.4776 34.966 40.855 35.1716 41.1806C35.1792 41.193 35.1914 41.2015 35.1991 41.2138L33.205 41.8852L32.0883 40.0732C31.8965 39.7611 31.6288 39.5037 31.3107 39.3255C30.9926 39.1473 30.6346 39.0543 30.2708 39.0553C29.5783 39.0553 28.9516 39.3948 28.5488 39.9559L27.9779 33.5929V33.4377ZM24.1563 50.1136C24.1563 50.0163 24.183 49.9214 24.2342 49.8396L29.7518 40.8905C29.8064 40.8011 29.8827 40.7272 29.9735 40.676C30.0643 40.6248 30.1666 40.5979 30.2706 40.5978C30.3746 40.5977 30.4769 40.6245 30.5678 40.6756C30.6586 40.7267 30.7351 40.8004 30.7898 40.8897L36.3073 49.8388C36.3562 49.9172 36.3833 50.0073 36.3859 50.0999C36.3885 50.1924 36.3664 50.284 36.3219 50.365C36.2775 50.4459 36.2124 50.5134 36.1333 50.5603C36.0542 50.6071 35.9641 50.6317 35.8725 50.6314H24.6691C24.6018 50.6315 24.535 50.6182 24.4728 50.5922C24.4105 50.5662 24.3539 50.5281 24.3063 50.48C24.2586 50.4319 24.2209 50.3748 24.1951 50.3119C24.1694 50.249 24.1562 50.1816 24.1563 50.1136ZM23.392 52.1749H49.3786C49.3786 52.7398 49.5407 53.2623 49.8036 53.7184H47.85V54.4902C47.8501 55.527 48.0806 56.5506 48.5245 57.4856C48.9685 58.4205 49.6145 59.243 50.415 59.8924H26.9216L23.392 52.7645V52.1749ZM27.2135 61.4359H52.4359V62.9793H27.2135V61.4359ZM63.1363 62.9793H53.9645V61.3903C54.216 61.4189 54.4705 61.4359 54.7288 61.4359H62.372C62.6303 61.4359 62.8848 61.4189 63.1363 61.3903V62.9793ZM62.372 59.8924H54.7288C52.0377 59.8924 49.8051 57.8766 49.4329 55.2619H67.6679C67.2957 57.8766 65.0631 59.8924 62.372 59.8924Z" fill="#522C08"/>
<path d="M33.3281 47.5445H31.7994V49.088H33.3281V47.5445Z" fill="#522C08"/>
<path d="M39.4426 31.3378H37.9139V32.8813H39.4426V31.3378Z" fill="#522C08"/>
<path d="M42.4998 34.4248H40.9712V35.9683H42.4998V34.4248Z" fill="#522C08"/>
<path d="M44.7928 40.5988H43.2642V42.1422H44.7928V40.5988Z" fill="#522C08"/>
<path d="M31.0351 35.1965H29.5065V36.74H31.0351V35.1965Z" fill="#522C08"/>
<path d="M33.3281 37.5118H31.7994V39.0553H33.3281V37.5118Z" fill="#522C08"/>
<path d="M31.0351 42.914H29.5065V44.4575H31.0351V42.914Z" fill="#522C08"/>
<path d="M37.9139 43.6857H36.3853V45.2292H37.9139V43.6857Z" fill="#522C08"/>
<path d="M44.0284 47.5445H42.4998V49.088H44.0284V47.5445Z" fill="#522C08"/>
<path d="M49.3787 42.914H47.85V44.4575H49.3787V42.914Z" fill="#522C08"/>
<path d="M50.9073 46.7727H49.3787V48.3162H50.9073V46.7727Z" fill="#522C08"/>
<path d="M28.7422 47.5445H27.2136V49.088H28.7422V47.5445Z" fill="#522C08"/>
</g>
</g>
</g>
</g>
</g>
</g>
</g>
</g>
</g>
<path d="M127.952 39.665L134.042 22.165H131.312V21.5H136.667V22.165H135.022L126.587 46.35H123.647L114.722 22.165H113.112V21.5H124.557V22.165H122.072L127.952 39.665ZM137.737 21.5H148.412V22.165H146.487V33.225L146.767 33.155L156.637 22.165H153.872V21.5H159.997V22.165H157.897L151.877 28.885L160.277 45.335H162.167V46H150.932V45.335H152.577L146.802 34.17L146.487 34.24V45.335H148.412V46H137.737V45.335H139.662V22.165H137.737V21.5ZM170.719 46.35C167.709 46.35 165.446 45.58 163.929 44.04C162.436 42.4767 161.689 40.3183 161.689 37.565C161.689 34.7883 162.529 32.665 164.209 31.195C165.912 29.725 168.071 28.99 170.684 28.99C175.981 28.99 178.524 31.65 178.314 36.97H168.444V38.335C168.444 40.6217 168.736 42.3483 169.319 43.515C169.902 44.6817 170.917 45.265 172.364 45.265C175.071 45.265 176.844 43.8183 177.684 40.925L178.314 41.03C177.871 42.71 177.066 44.0167 175.899 44.95C174.756 45.8833 173.029 46.35 170.719 46.35ZM168.479 36.27H172.084V34.555C172.084 32.665 171.967 31.3817 171.734 30.705C171.524 30.005 171.081 29.655 170.404 29.655C169.751 29.655 169.261 30.0283 168.934 30.775C168.631 31.4983 168.479 32.7583 168.479 34.555V36.27ZM179.421 19.75H187.996V45.37H189.956V46H179.561V45.37H181.486V20.38H179.421V19.75ZM190.495 19.75H199.07V45.37H201.03V46H190.635V45.37H192.56V20.38H190.495V19.75ZM213.014 39.105V36.13C213.014 33.8667 212.886 32.2217 212.629 31.195C212.396 30.145 211.836 29.62 210.949 29.62C210.436 29.62 210.016 29.7717 209.689 30.075C209.386 30.355 209.164 30.8333 209.024 31.51C208.814 32.56 208.709 34.1583 208.709 36.305V39.035C208.709 41.5783 208.779 43.1067 208.919 43.62C209.083 44.1333 209.246 44.5533 209.409 44.88C209.666 45.44 210.168 45.72 210.914 45.72C211.824 45.72 212.419 45.195 212.699 44.145C212.909 43.3983 213.014 41.7183 213.014 39.105ZM210.844 46.35C207.928 46.35 205.723 45.6033 204.229 44.11C202.736 42.6167 201.989 40.4817 201.989 37.705C201.989 34.905 202.783 32.7583 204.369 31.265C205.979 29.7483 208.231 28.99 211.124 28.99C214.018 28.99 216.176 29.69 217.599 31.09C219.023 32.4667 219.734 34.5783 219.734 37.425C219.734 43.375 216.771 46.35 210.844 46.35ZM234.748 27.52L235.728 26.925C235.868 26.2017 235.588 25.84 234.888 25.84C233.885 25.84 233.383 26.61 233.383 28.15C233.383 28.7567 233.465 29.4567 233.628 30.25C235.402 31.44 236.288 32.9683 236.288 34.835C236.288 36.6783 235.647 38.1133 234.363 39.14C233.08 40.1667 231.342 40.68 229.148 40.68C228.238 40.68 227.293 40.5867 226.313 40.4C225.287 41.0533 224.773 41.5433 224.773 41.87C224.773 42.1967 225.52 42.36 227.013 42.36H230.583C235.88 42.36 238.528 44.2617 238.528 48.065C238.528 50.1183 237.723 51.74 236.113 52.93C234.527 54.1433 232.042 54.75 228.658 54.75C222.895 54.75 220.013 53.5017 220.013 51.005C220.013 49.6517 220.912 48.7183 222.708 48.205L224.808 49.15C224.622 49.8267 224.528 50.4683 224.528 51.075C224.528 53.0817 226.022 54.085 229.008 54.085C230.828 54.085 232.228 53.7467 233.208 53.07C234.188 52.3933 234.678 51.5533 234.678 50.55C234.678 49.5467 234.375 48.87 233.768 48.52C233.185 48.1933 232.007 48.03 230.233 48.03H226.838C224.948 48.03 223.595 47.715 222.778 47.085C221.962 46.455 221.553 45.685 221.553 44.775C221.553 43.8417 221.845 43.0717 222.428 42.465C223.012 41.835 224.05 41.065 225.543 40.155C222.837 39.385 221.483 37.6117 221.483 34.835C221.483 33.085 222.113 31.6733 223.373 30.6C224.633 29.5267 226.523 28.99 229.043 28.99C230.56 28.99 231.855 29.2817 232.928 29.865C232.788 29.235 232.718 28.6633 232.718 28.15C232.718 26.8433 233.068 25.8983 233.768 25.315C234.468 24.7317 235.25 24.44 236.113 24.44C236.977 24.44 237.665 24.6733 238.178 25.14C238.715 25.5833 238.983 26.2017 238.983 26.995C238.983 27.7883 238.773 28.3833 238.353 28.78C237.933 29.1533 237.42 29.34 236.813 29.34C236.23 29.34 235.74 29.1883 235.343 28.885C234.97 28.5583 234.772 28.1033 234.748 27.52ZM227.328 34.065V35.955C227.328 37.5183 227.457 38.58 227.713 39.14C227.993 39.7 228.402 39.98 228.938 39.98C229.498 39.98 229.895 39.7117 230.128 39.175C230.385 38.615 230.513 37.4833 230.513 35.78V34.065C230.513 32.245 230.397 31.055 230.163 30.495C229.93 29.9117 229.533 29.62 228.973 29.62C228.437 29.62 228.028 29.9233 227.748 30.53C227.468 31.1133 227.328 32.2917 227.328 34.065ZM251.424 30.285C252.241 30.8217 252.848 31.4167 253.244 32.07C253.664 32.7233 253.874 33.5983 253.874 34.695C253.874 36.6317 253.233 38.1133 251.949 39.14C250.666 40.1667 248.928 40.68 246.734 40.68C245.894 40.68 245.043 40.5983 244.179 40.435C243.199 41.0417 242.709 41.52 242.709 41.87C242.709 42.1967 243.456 42.36 244.949 42.36H248.169C253.466 42.36 256.114 44.2617 256.114 48.065C256.114 50.1183 255.309 51.74 253.699 52.93C252.113 54.1433 249.628 54.75 246.244 54.75C241.181 54.75 238.649 53.5483 238.649 51.145C238.649 49.885 239.548 48.9983 241.344 48.485L243.444 49.43C243.258 50.1067 243.164 50.655 243.164 51.075C243.164 53.0817 244.413 54.085 246.909 54.085C248.589 54.085 249.896 53.7467 250.829 53.07C251.786 52.3933 252.264 51.5533 252.264 50.55C252.264 49.5467 251.961 48.87 251.354 48.52C250.771 48.1933 249.593 48.03 247.819 48.03H244.774C242.884 48.03 241.531 47.715 240.714 47.085C239.898 46.455 239.489 45.6733 239.489 44.74C239.489 43.7833 239.746 42.99 240.259 42.36C240.773 41.73 241.729 40.995 243.129 40.155C240.423 39.385 239.069 37.6117 239.069 34.835C239.069 33.085 239.699 31.6733 240.959 30.6C242.219 29.5267 244.109 28.99 246.629 28.99C248.193 28.99 249.558 29.2933 250.724 29.9C250.608 29.41 250.549 28.8267 250.549 28.15C250.549 26.8433 250.899 25.8983 251.599 25.315C252.299 24.7317 253.081 24.44 253.944 24.44C254.808 24.44 255.496 24.6733 256.009 25.14C256.546 25.5833 256.814 26.2017 256.814 26.995C256.814 27.7883 256.604 28.3833 256.184 28.78C255.764 29.1533 255.251 29.34 254.644 29.34C254.061 29.34 253.571 29.1883 253.174 28.885C252.801 28.5583 252.603 28.1033 252.579 27.52L253.559 26.925C253.699 26.2017 253.419 25.84 252.719 25.84C251.716 25.84 251.214 26.61 251.214 28.15C251.214 28.8033 251.284 29.515 251.424 30.285ZM244.914 34.065V35.955C244.914 37.5183 245.043 38.58 245.299 39.14C245.579 39.7 245.988 39.98 246.524 39.98C247.084 39.98 247.481 39.7117 247.714 39.175C247.971 38.615 248.099 37.4833 248.099 35.78V34.065C248.099 32.245 247.983 31.055 247.749 30.495C247.516 29.9117 247.119 29.62 246.559 29.62C246.023 29.62 245.614 29.9233 245.334 30.53C245.054 31.1133 244.914 32.2917 244.914 34.065ZM260.046 30.18L259.731 29.69C261.901 28.2667 262.986 26.8433 262.986 25.42C262.986 24.6733 262.671 24.2533 262.041 24.16L260.571 25.525C260.104 25.3617 259.672 25.07 259.276 24.65C258.902 24.2067 258.716 23.6467 258.716 22.97C258.716 22.2933 258.984 21.7217 259.521 21.255C260.057 20.765 260.757 20.52 261.621 20.52C262.507 20.52 263.231 20.8233 263.791 21.43C264.374 22.0133 264.666 22.83 264.666 23.88C264.666 26.1667 263.126 28.2667 260.046 30.18ZM264.585 46.35V40.085H265.005C265.611 42.115 266.428 43.5383 267.455 44.355C268.481 45.1717 269.765 45.58 271.305 45.58C273.685 45.58 274.875 44.8217 274.875 43.305C274.875 42.6517 274.583 42.1617 274 41.835C273.09 41.3217 271.923 40.925 270.5 40.645C268.913 40.225 267.583 39.665 266.51 38.965C265.226 38.125 264.585 36.795 264.585 34.975C264.585 33.155 265.145 31.7083 266.265 30.635C267.385 29.5383 268.878 28.99 270.745 28.99C271.888 28.99 273.066 29.2583 274.28 29.795C274.723 29.9817 275.061 30.075 275.295 30.075C275.528 30.075 275.726 29.9933 275.89 29.83C276.053 29.6667 276.251 29.3633 276.485 28.92H276.87V34.275H276.45C275.26 31.2417 273.416 29.725 270.92 29.725C269.823 29.725 269.006 29.9233 268.47 30.32C267.933 30.6933 267.665 31.1717 267.665 31.755C267.665 32.105 267.746 32.385 267.91 32.595C268.073 32.7817 268.201 32.9217 268.295 33.015C268.388 33.1083 268.54 33.2133 268.75 33.33C268.96 33.4233 269.135 33.505 269.275 33.575C269.415 33.6217 269.625 33.6917 269.905 33.785C270.208 33.8783 270.43 33.9367 270.57 33.96C272.156 34.3567 273.3 34.7067 274 35.01C274.7 35.29 275.365 35.64 275.995 36.06C277.278 36.9467 277.92 38.3817 277.92 40.365C277.92 42.325 277.336 43.8183 276.17 44.845C275.003 45.8483 273.405 46.35 271.375 46.35C269.928 46.35 268.528 46.0117 267.175 45.335C266.895 45.1483 266.673 45.055 266.51 45.055C265.996 45.055 265.495 45.4867 265.005 46.35H264.585Z" fill="#F4E1E1"/>
<path d="M122.37 64.3636C122.37 63.7386 122.164 63.2652 121.751 62.9432C121.338 62.6174 120.779 62.4545 120.075 62.4545C119.559 62.4545 119.095 62.5379 118.682 62.7045C118.27 62.8712 117.932 63.1004 117.671 63.392C117.41 63.6837 117.249 64.0152 117.188 64.3864C117.139 64.697 117.171 64.964 117.285 65.1875C117.398 65.4072 117.559 65.5909 117.768 65.7386C117.98 65.8826 118.207 66.0019 118.45 66.0966C118.692 66.1875 118.915 66.2614 119.12 66.3182L120.256 66.6364C120.54 66.7159 120.857 66.8258 121.205 66.9659C121.554 67.1061 121.879 67.2973 122.182 67.5398C122.486 67.7784 122.717 68.0852 122.876 68.4602C123.039 68.8352 123.075 69.2955 122.984 69.8409C122.878 70.4697 122.618 71.0379 122.205 71.5455C121.796 72.053 121.254 72.4564 120.58 72.7557C119.91 73.0549 119.128 73.2045 118.234 73.2045C117.4 73.2045 116.7 73.0701 116.131 72.8011C115.567 72.5322 115.15 72.1572 114.881 71.6761C114.616 71.1951 114.514 70.6364 114.575 70H116.029C115.991 70.4394 116.078 70.803 116.29 71.0909C116.503 71.375 116.798 71.5871 117.177 71.7273C117.556 71.8636 117.976 71.9318 118.438 71.9318C118.976 71.9318 119.472 71.8447 119.927 71.6705C120.385 71.4924 120.764 71.2462 121.063 70.9318C121.366 70.6136 121.552 70.2424 121.62 69.8182C121.688 69.4318 121.635 69.1174 121.461 68.875C121.287 68.6326 121.035 68.4356 120.705 68.2841C120.376 68.1326 120.014 68 119.62 67.8864L118.256 67.4773C117.393 67.2159 116.736 66.8428 116.285 66.358C115.838 65.8731 115.677 65.2386 115.802 64.4545C115.915 63.803 116.19 63.2348 116.626 62.75C117.061 62.2614 117.601 61.8826 118.245 61.6136C118.889 61.3409 119.582 61.2045 120.325 61.2045C121.075 61.2045 121.717 61.3409 122.251 61.6136C122.785 61.8826 123.182 62.2557 123.444 62.733C123.705 63.2064 123.802 63.75 123.734 64.3636H122.37ZM129.846 64.2727L129.664 65.4091H125.141L125.323 64.2727H129.846ZM126.982 62.1818H128.323L126.937 70.5C126.876 70.8788 126.886 71.1629 126.965 71.3523C127.048 71.5379 127.173 71.6629 127.34 71.7273C127.511 71.7879 127.694 71.8182 127.891 71.8182C128.039 71.8182 128.16 71.8106 128.255 71.7955C128.35 71.7765 128.425 71.7614 128.482 71.75L128.573 72.9545C128.471 72.9886 128.333 73.0227 128.158 73.0568C127.988 73.0947 127.778 73.1136 127.528 73.1136C127.149 73.1136 126.793 73.0322 126.459 72.8693C126.126 72.7064 125.87 72.4583 125.692 72.125C125.514 71.7917 125.467 71.3712 125.55 70.8636L126.982 62.1818ZM132.954 73.2045C132.401 73.2045 131.916 73.1004 131.499 72.892C131.083 72.6799 130.774 72.375 130.573 71.9773C130.372 71.5758 130.317 71.0909 130.408 70.5227C130.495 70.0227 130.664 69.6174 130.914 69.3068C131.164 68.9924 131.467 68.7462 131.823 68.5682C132.183 68.3864 132.569 68.2519 132.982 68.1648C133.399 68.0739 133.814 68.0038 134.227 67.9545C134.764 67.8864 135.202 67.8333 135.539 67.7955C135.876 67.7576 136.13 67.6951 136.3 67.608C136.471 67.5208 136.575 67.3712 136.613 67.1591V67.1136C136.704 66.5568 136.63 66.1231 136.391 65.8125C136.153 65.4981 135.727 65.3409 135.113 65.3409C134.477 65.3409 133.944 65.4811 133.516 65.7614C133.088 66.0417 132.772 66.3409 132.567 66.6591L131.386 66.2045C131.696 65.6742 132.067 65.2614 132.499 64.9659C132.931 64.6667 133.384 64.4583 133.857 64.3409C134.331 64.2197 134.787 64.1591 135.227 64.1591C135.507 64.1591 135.823 64.1932 136.175 64.2614C136.528 64.3258 136.857 64.4602 137.164 64.6648C137.475 64.8693 137.708 65.178 137.863 65.5909C138.022 66.0038 138.045 66.5568 137.931 67.25L136.977 73H135.636L135.84 71.8182H135.772C135.651 72.0076 135.465 72.2102 135.215 72.4261C134.969 72.642 134.656 72.8258 134.278 72.9773C133.903 73.1288 133.461 73.2045 132.954 73.2045ZM133.34 72C133.87 72 134.334 71.8958 134.732 71.6875C135.134 71.4792 135.456 71.2102 135.698 70.8807C135.944 70.5511 136.098 70.2045 136.158 69.8409L136.363 68.6136C136.295 68.6818 136.16 68.7443 135.959 68.8011C135.759 68.8542 135.531 68.9015 135.278 68.9432C135.028 68.9811 134.783 69.0152 134.545 69.0455C134.31 69.072 134.12 69.0947 133.977 69.1136C133.62 69.1591 133.281 69.233 132.959 69.3352C132.641 69.4337 132.372 69.5833 132.153 69.7841C131.937 69.9811 131.802 70.25 131.749 70.5909C131.67 71.0568 131.781 71.4091 132.084 71.6477C132.387 71.8826 132.806 72 133.34 72ZM139.424 73L140.878 64.2727H142.174L141.947 65.5909H142.038C142.265 65.1591 142.611 64.8087 143.077 64.5398C143.543 64.2708 144.038 64.1364 144.56 64.1364C144.663 64.1364 144.786 64.1383 144.93 64.142C145.074 64.142 145.185 64.1477 145.265 64.1591L145.038 65.5227C144.992 65.5114 144.89 65.4943 144.731 65.4716C144.572 65.4451 144.401 65.4318 144.219 65.4318C143.795 65.4318 143.403 65.5208 143.043 65.6989C142.683 65.8731 142.382 66.1155 142.14 66.4261C141.897 66.733 141.742 67.0833 141.674 67.4773L140.765 73H139.424ZM151.205 64.2727L151.023 65.4091H146.501L146.682 64.2727H151.205ZM148.342 62.1818H149.682L148.296 70.5C148.236 70.8788 148.245 71.1629 148.325 71.3523C148.408 71.5379 148.533 71.6629 148.7 71.7273C148.87 71.7879 149.054 71.8182 149.251 71.8182C149.398 71.8182 149.52 71.8106 149.614 71.7955C149.709 71.7765 149.785 71.7614 149.842 71.75L149.932 72.9545C149.83 72.9886 149.692 73.0227 149.518 73.0568C149.347 73.0947 149.137 73.1136 148.887 73.1136C148.508 73.1136 148.152 73.0322 147.819 72.8693C147.486 72.7064 147.23 72.4583 147.052 72.125C146.874 71.7917 146.826 71.3712 146.91 70.8636L148.342 62.1818ZM157.381 61.3636H158.995L161.336 66.7955H161.472L165.586 61.3636H167.2L161.859 68.2045L161.063 73H159.654L160.45 68.2045L157.381 61.3636ZM169.276 73.1818C168.473 73.1818 167.801 72.9905 167.259 72.608C166.718 72.2254 166.335 71.6894 166.111 71C165.892 70.3106 165.856 69.5076 166.003 68.5909C166.147 67.697 166.433 66.9186 166.861 66.2557C167.293 65.589 167.829 65.0739 168.469 64.7102C169.113 64.3428 169.822 64.1591 170.594 64.1591C171.397 64.1591 172.068 64.3523 172.606 64.7386C173.147 65.1212 173.53 65.6591 173.753 66.3523C173.977 67.0417 174.015 67.8485 173.867 68.7727C173.723 69.6591 173.433 70.4337 172.998 71.0966C172.566 71.7557 172.03 72.2689 171.39 72.6364C170.753 73 170.049 73.1818 169.276 73.1818ZM169.299 71.9773C169.913 71.9773 170.445 71.8201 170.896 71.5057C171.35 71.1913 171.718 70.7765 171.998 70.2614C172.282 69.7462 172.473 69.1894 172.572 68.5909C172.663 68.0227 172.659 67.4943 172.56 67.0057C172.462 66.5133 172.252 66.1174 171.93 65.8182C171.608 65.5152 171.155 65.3636 170.572 65.3636C169.958 65.3636 169.422 65.5227 168.964 65.8409C168.509 66.1591 168.142 66.5777 167.861 67.0966C167.581 67.6155 167.394 68.1742 167.299 68.7727C167.208 69.3409 167.21 69.8693 167.305 70.358C167.403 70.8428 167.613 71.2348 167.935 71.5341C168.261 71.8295 168.716 71.9773 169.299 71.9773ZM181.312 69.4318L182.175 64.2727H183.516L182.062 73H180.721L180.971 71.5227H180.88C180.607 71.9659 180.227 72.3428 179.738 72.6534C179.249 72.9602 178.675 73.1136 178.016 73.1136C177.471 73.1136 177.005 72.9943 176.619 72.7557C176.236 72.5133 175.963 72.1496 175.8 71.6648C175.641 71.1761 175.622 70.5606 175.744 69.8182L176.675 64.2727H178.016L177.107 69.7273C177.005 70.3636 177.102 70.8712 177.397 71.25C177.692 71.6288 178.119 71.8182 178.675 71.8182C179.009 71.8182 179.361 71.733 179.732 71.5625C180.107 71.392 180.441 71.1307 180.732 70.7784C181.028 70.4261 181.221 69.9773 181.312 69.4318ZM184.518 73L185.972 64.2727H187.268L187.04 65.5909H187.131C187.359 65.1591 187.705 64.8087 188.171 64.5398C188.637 64.2708 189.131 64.1364 189.654 64.1364C189.756 64.1364 189.879 64.1383 190.023 64.142C190.167 64.142 190.279 64.1477 190.359 64.1591L190.131 65.5227C190.086 65.5114 189.984 65.4943 189.825 65.4716C189.665 65.4451 189.495 65.4318 189.313 65.4318C188.889 65.4318 188.497 65.5208 188.137 65.6989C187.777 65.8731 187.476 66.1155 187.234 66.4261C186.991 66.733 186.836 67.0833 186.768 67.4773L185.859 73H184.518ZM198.82 73H195.184L197.116 61.3636H200.82C201.949 61.3636 202.879 61.6004 203.61 62.0739C204.345 62.5473 204.856 63.2235 205.144 64.1023C205.436 64.9811 205.479 66.0303 205.275 67.25C205.078 68.447 204.695 69.4754 204.127 70.3352C203.563 71.1913 202.832 71.8504 201.934 72.3125C201.04 72.7708 200.002 73 198.82 73ZM196.803 71.75H198.866C199.828 71.75 200.657 71.5606 201.354 71.1818C202.055 70.803 202.619 70.2633 203.048 69.5625C203.479 68.8617 203.775 68.0303 203.934 67.0682C204.093 66.1439 204.078 65.3504 203.888 64.6875C203.703 64.0208 203.337 63.5095 202.792 63.1534C202.25 62.7936 201.525 62.6136 200.616 62.6136H198.315L196.803 71.75ZM209.048 73.2045C208.494 73.2045 208.01 73.1004 207.593 72.892C207.176 72.6799 206.868 72.375 206.667 71.9773C206.466 71.5758 206.411 71.0909 206.502 70.5227C206.589 70.0227 206.758 69.6174 207.008 69.3068C207.258 68.9924 207.561 68.7462 207.917 68.5682C208.277 68.3864 208.663 68.2519 209.076 68.1648C209.493 68.0739 209.907 68.0038 210.32 67.9545C210.858 67.8864 211.296 67.8333 211.633 67.7955C211.97 67.7576 212.224 67.6951 212.394 67.608C212.565 67.5208 212.669 67.3712 212.707 67.1591V67.1136C212.798 66.5568 212.724 66.1231 212.485 65.8125C212.246 65.4981 211.82 65.3409 211.207 65.3409C210.57 65.3409 210.038 65.4811 209.61 65.7614C209.182 66.0417 208.866 66.3409 208.661 66.6591L207.479 66.2045C207.79 65.6742 208.161 65.2614 208.593 64.9659C209.025 64.6667 209.477 64.4583 209.951 64.3409C210.424 64.2197 210.881 64.1591 211.32 64.1591C211.601 64.1591 211.917 64.1932 212.269 64.2614C212.621 64.3258 212.951 64.4602 213.258 64.6648C213.568 64.8693 213.801 65.178 213.957 65.5909C214.116 66.0038 214.138 66.5568 214.025 67.25L213.07 73H211.729L211.934 71.8182H211.866C211.744 72.0076 211.559 72.2102 211.309 72.4261C211.063 72.642 210.75 72.8258 210.371 72.9773C209.996 73.1288 209.555 73.2045 209.048 73.2045ZM209.434 72C209.964 72 210.428 71.8958 210.826 71.6875C211.227 71.4792 211.549 71.2102 211.792 70.8807C212.038 70.5511 212.191 70.2045 212.252 69.8409L212.457 68.6136C212.388 68.6818 212.254 68.7443 212.053 68.8011C211.852 68.8542 211.625 68.9015 211.371 68.9432C211.121 68.9811 210.877 69.0152 210.638 69.0455C210.404 69.072 210.214 69.0947 210.07 69.1136C209.714 69.1591 209.375 69.233 209.053 69.3352C208.735 69.4337 208.466 69.5833 208.246 69.7841C208.03 69.9811 207.896 70.25 207.843 70.5909C207.763 71.0568 207.875 71.4091 208.178 71.6477C208.481 71.8826 208.9 72 209.434 72ZM215.535 76.2727C215.307 76.2727 215.107 76.2538 214.932 76.2159C214.762 76.1818 214.645 76.1477 214.58 76.1136L215.126 74.9318C215.436 75.0152 215.713 75.0398 215.955 75.0057C216.201 74.9754 216.434 74.8561 216.654 74.6477C216.878 74.4432 217.111 74.1212 217.353 73.6818L217.728 73L215.978 64.2727H217.376L218.626 71.25H218.717L222.285 64.2727H223.796L218.444 74.2614C218.194 74.7273 217.919 75.108 217.62 75.4034C217.321 75.6989 216.997 75.9167 216.648 76.0568C216.3 76.2008 215.929 76.2727 215.535 76.2727ZM230.589 73L229.384 64.2727H230.793L231.566 70.9545H231.657L234.634 64.2727H236.066L236.793 70.9318H236.884L239.884 64.2727H241.293L237.18 73H235.861L235.066 66.2955H234.93L231.907 73H230.589ZM241.611 73L243.066 64.2727H244.407L242.952 73H241.611ZM244.146 62.7955C243.884 62.7955 243.659 62.7064 243.469 62.5284C243.284 62.3504 243.191 62.1364 243.191 61.8864C243.191 61.6364 243.284 61.4223 243.469 61.2443C243.659 61.0663 243.884 60.9773 244.146 60.9773C244.407 60.9773 244.63 61.0663 244.816 61.2443C245.005 61.4223 245.1 61.6364 245.1 61.8864C245.1 62.1364 245.005 62.3504 244.816 62.5284C244.63 62.7064 244.407 62.7955 244.146 62.7955ZM250.658 64.2727L250.477 65.4091H245.954L246.136 64.2727H250.658ZM247.795 62.1818H249.136L247.749 70.5C247.689 70.8788 247.698 71.1629 247.778 71.3523C247.861 71.5379 247.986 71.6629 248.153 71.7273C248.323 71.7879 248.507 71.8182 248.704 71.8182C248.852 71.8182 248.973 71.8106 249.067 71.7955C249.162 71.7765 249.238 71.7614 249.295 71.75L249.386 72.9545C249.283 72.9886 249.145 73.0227 248.971 73.0568C248.8 73.0947 248.59 73.1136 248.34 73.1136C247.961 73.1136 247.605 73.0322 247.272 72.8693C246.939 72.7064 246.683 72.4583 246.505 72.125C246.327 71.7917 246.28 71.3712 246.363 70.8636L247.795 62.1818ZM253.613 67.75L252.749 73H251.408L253.34 61.3636H254.681L253.977 65.6364H254.09C254.363 65.1818 254.727 64.822 255.181 64.5568C255.639 64.2917 256.215 64.1591 256.908 64.1591C257.499 64.1591 257.997 64.2784 258.403 64.517C258.812 64.7519 259.1 65.1136 259.266 65.6023C259.437 66.0871 259.461 66.7045 259.34 67.4545L258.408 73H257.067L257.977 67.5455C258.09 66.8523 257.997 66.3163 257.698 65.9375C257.403 65.5549 256.942 65.3636 256.317 65.3636C255.878 65.3636 255.469 65.4564 255.09 65.642C254.715 65.8277 254.397 66.0985 254.136 66.4545C253.878 66.8106 253.704 67.2424 253.613 67.75ZM267.952 61.3636L269.793 71.1591H269.93L274.998 61.3636H276.475L270.271 73H268.816L266.475 61.3636H267.952ZM276.356 73L278.288 61.3636H279.697L278.742 67.1364H278.878L285.06 61.3636H286.901L281.151 66.6136L284.969 73H283.265L280.128 67.5909L278.401 69.2273L277.765 73H276.356ZM289.607 73.1818C288.77 73.1818 288.079 72.9962 287.533 72.625C286.988 72.25 286.607 71.7273 286.391 71.0568C286.175 70.3826 286.141 69.5985 286.289 68.7045C286.437 67.8106 286.73 67.0227 287.17 66.3409C287.609 65.6553 288.156 65.1212 288.812 64.7386C289.467 64.3523 290.187 64.1591 290.971 64.1591C291.425 64.1591 291.863 64.2348 292.283 64.3864C292.704 64.5379 293.067 64.7841 293.374 65.125C293.681 65.4621 293.895 65.9091 294.016 66.4659C294.137 67.0227 294.13 67.7083 293.994 68.5227L293.903 69.0909H287.175L287.357 67.9318H292.721C292.808 67.4394 292.785 67 292.653 66.6136C292.524 66.2273 292.298 65.9223 291.977 65.6989C291.658 65.4754 291.255 65.3636 290.766 65.3636C290.262 65.3636 289.793 65.5 289.357 65.7727C288.922 66.0417 288.558 66.3826 288.266 66.7955C287.975 67.2045 287.793 67.6212 287.721 68.0455L287.562 69.0455C287.448 69.7689 287.465 70.3447 287.613 70.7727C287.764 71.2008 288.028 71.5095 288.403 71.6989C288.778 71.8845 289.247 71.9773 289.812 71.9773C290.172 71.9773 290.503 71.928 290.806 71.8295C291.109 71.7273 291.38 71.5758 291.619 71.375C291.857 71.1705 292.058 70.9167 292.221 70.6136L293.448 70.9773C293.24 71.4167 292.946 71.803 292.567 72.1364C292.192 72.4659 291.753 72.7235 291.249 72.9091C290.749 73.0909 290.202 73.1818 289.607 73.1818ZM298.587 61.3636L296.655 73H295.315L297.246 61.3636H298.587ZM302.384 61.3636L300.452 73H299.111L301.043 61.3636H302.384ZM306.511 73.1818C305.708 73.1818 305.035 72.9905 304.494 72.608C303.952 72.2254 303.569 71.6894 303.346 71C303.126 70.3106 303.09 69.5076 303.238 68.5909C303.382 67.697 303.668 66.9186 304.096 66.2557C304.528 65.589 305.064 65.0739 305.704 64.7102C306.348 64.3428 307.056 64.1591 307.829 64.1591C308.632 64.1591 309.302 64.3523 309.84 64.7386C310.382 65.1212 310.764 65.6591 310.988 66.3523C311.211 67.0417 311.249 67.8485 311.102 68.7727C310.958 69.6591 310.668 70.4337 310.232 71.0966C309.8 71.7557 309.264 72.2689 308.624 72.6364C307.988 73 307.283 73.1818 306.511 73.1818ZM306.533 71.9773C307.147 71.9773 307.679 71.8201 308.13 71.5057C308.584 71.1913 308.952 70.7765 309.232 70.2614C309.516 69.7462 309.708 69.1894 309.806 68.5909C309.897 68.0227 309.893 67.4943 309.795 67.0057C309.696 66.5133 309.486 66.1174 309.164 65.8182C308.842 65.5152 308.389 65.3636 307.806 65.3636C307.192 65.3636 306.656 65.5227 306.198 65.8409C305.744 66.1591 305.376 66.5777 305.096 67.0966C304.816 67.6155 304.628 68.1742 304.533 68.7727C304.442 69.3409 304.444 69.8693 304.539 70.358C304.637 70.8428 304.848 71.2348 305.17 71.5341C305.495 71.8295 305.95 71.9773 306.533 71.9773ZM315.432 76.4545C314.781 76.4545 314.236 76.3712 313.796 76.2045C313.357 76.0417 313.004 75.8258 312.739 75.5568C312.474 75.2917 312.273 75.0076 312.137 74.7045L313.342 73.9545C313.432 74.1136 313.55 74.2955 313.694 74.5C313.838 74.7083 314.056 74.8883 314.347 75.0398C314.643 75.1951 315.057 75.2727 315.592 75.2727C316.292 75.2727 316.906 75.1023 317.432 74.7614C317.959 74.4205 318.285 73.8864 318.41 73.1591L318.682 71.3864H318.569C318.448 71.5455 318.279 71.7424 318.063 71.9773C317.847 72.2083 317.557 72.4148 317.194 72.5966C316.83 72.7746 316.364 72.8636 315.796 72.8636C315.088 72.8636 314.482 72.697 313.978 72.3636C313.474 72.0303 313.112 71.5455 312.893 70.9091C312.677 70.2727 312.645 69.5 312.796 68.5909C312.944 67.697 313.228 66.9186 313.648 66.2557C314.073 65.589 314.595 65.0739 315.217 64.7102C315.838 64.3428 316.516 64.1591 317.251 64.1591C317.819 64.1591 318.254 64.2538 318.557 64.4432C318.864 64.6288 319.088 64.8409 319.228 65.0795C319.368 65.3144 319.474 65.5076 319.546 65.6591H319.682L319.91 64.2727H321.205L319.728 73.25C319.603 74 319.332 74.6098 318.915 75.0795C318.499 75.553 317.987 75.8996 317.381 76.1193C316.775 76.3428 316.126 76.4545 315.432 76.4545ZM316.137 71.6591C316.671 71.6591 317.146 71.536 317.563 71.2898C317.984 71.0436 318.332 70.6894 318.609 70.2273C318.885 69.7652 319.076 69.2121 319.182 68.5682C319.289 67.9394 319.281 67.3845 319.16 66.9034C319.039 66.4223 318.809 66.0455 318.472 65.7727C318.139 65.5 317.701 65.3636 317.16 65.3636C316.588 65.3636 316.093 65.5076 315.677 65.7955C315.264 66.0833 314.929 66.4697 314.671 66.9545C314.414 67.4394 314.236 67.9773 314.137 68.5682C314.039 69.1742 314.042 69.7102 314.148 70.1761C314.254 70.6383 314.47 71.0019 314.796 71.267C315.126 71.5284 315.573 71.6591 316.137 71.6591ZM325.182 76.4545C324.531 76.4545 323.986 76.3712 323.546 76.2045C323.107 76.0417 322.754 75.8258 322.489 75.5568C322.224 75.2917 322.023 75.0076 321.887 74.7045L323.092 73.9545C323.182 74.1136 323.3 74.2955 323.444 74.5C323.588 74.7083 323.806 74.8883 324.097 75.0398C324.393 75.1951 324.807 75.2727 325.342 75.2727C326.042 75.2727 326.656 75.1023 327.182 74.7614C327.709 74.4205 328.035 73.8864 328.16 73.1591L328.432 71.3864H328.319C328.198 71.5455 328.029 71.7424 327.813 71.9773C327.597 72.2083 327.307 72.4148 326.944 72.5966C326.58 72.7746 326.114 72.8636 325.546 72.8636C324.838 72.8636 324.232 72.697 323.728 72.3636C323.224 72.0303 322.862 71.5455 322.643 70.9091C322.427 70.2727 322.395 69.5 322.546 68.5909C322.694 67.697 322.978 66.9186 323.398 66.2557C323.823 65.589 324.345 65.0739 324.967 64.7102C325.588 64.3428 326.266 64.1591 327.001 64.1591C327.569 64.1591 328.004 64.2538 328.307 64.4432C328.614 64.6288 328.838 64.8409 328.978 65.0795C329.118 65.3144 329.224 65.5076 329.296 65.6591H329.432L329.66 64.2727H330.955L329.478 73.25C329.353 74 329.082 74.6098 328.665 75.0795C328.249 75.553 327.737 75.8996 327.131 76.1193C326.525 76.3428 325.876 76.4545 325.182 76.4545ZM325.887 71.6591C326.421 71.6591 326.896 71.536 327.313 71.2898C327.734 71.0436 328.082 70.6894 328.359 70.2273C328.635 69.7652 328.826 69.2121 328.932 68.5682C329.039 67.9394 329.031 67.3845 328.91 66.9034C328.789 66.4223 328.559 66.0455 328.222 65.7727C327.889 65.5 327.451 65.3636 326.91 65.3636C326.338 65.3636 325.843 65.5076 325.427 65.7955C325.014 66.0833 324.679 66.4697 324.421 66.9545C324.164 67.4394 323.986 67.9773 323.887 68.5682C323.789 69.1742 323.792 69.7102 323.898 70.1761C324.004 70.6383 324.22 71.0019 324.546 71.267C324.876 71.5284 325.323 71.6591 325.887 71.6591ZM335.046 61.3636L334.387 65.3636H333.137L333.796 61.3636H335.046ZM342.82 66.2273L341.548 66.5682C341.502 66.3636 341.423 66.1667 341.309 65.9773C341.199 65.7841 341.029 65.6269 340.798 65.5057C340.57 65.3807 340.26 65.3182 339.866 65.3182C339.332 65.3182 338.868 65.4413 338.474 65.6875C338.08 65.9299 337.854 66.2386 337.798 66.6136C337.741 66.9432 337.816 67.2064 338.025 67.4034C338.233 67.6004 338.582 67.7614 339.07 67.8864L340.32 68.2045C341.07 68.3977 341.604 68.6875 341.923 69.0739C342.244 69.4564 342.354 69.9545 342.252 70.5682C342.169 71.0682 341.951 71.5152 341.599 71.9091C341.246 72.303 340.796 72.6136 340.246 72.8409C339.697 73.0682 339.085 73.1818 338.411 73.1818C337.513 73.1818 336.805 72.9886 336.286 72.6023C335.767 72.2121 335.491 71.6477 335.457 70.9091L336.798 70.5909C336.832 71.0568 336.998 71.4091 337.298 71.6477C337.601 71.8826 338.025 72 338.57 72C339.195 72 339.716 71.8674 340.133 71.6023C340.549 71.3333 340.786 71.0114 340.843 70.6364C340.9 70.3295 340.839 70.0739 340.661 69.8693C340.487 69.6648 340.184 69.5114 339.752 69.4091L338.366 69.0682C337.593 68.875 337.051 68.5795 336.741 68.1818C336.434 67.7841 336.332 67.2841 336.434 66.6818C336.517 66.1894 336.729 65.7538 337.07 65.375C337.415 64.9962 337.847 64.6989 338.366 64.483C338.888 64.267 339.457 64.1591 340.07 64.1591C340.934 64.1591 341.58 64.3485 342.008 64.7273C342.436 65.1023 342.707 65.6023 342.82 66.2273ZM350.657 73L349.407 61.3636H350.839L351.702 70.8409H351.816L355.861 61.3636H357.452L358.361 70.8409H358.475L362.475 61.3636H363.907L358.793 73H357.339L356.316 63.7273H356.225L352.111 73H350.657ZM365.282 73.2045C364.729 73.2045 364.244 73.1004 363.827 72.892C363.411 72.6799 363.102 72.375 362.901 71.9773C362.7 71.5758 362.646 71.0909 362.736 70.5227C362.824 70.0227 362.992 69.6174 363.242 69.3068C363.492 68.9924 363.795 68.7462 364.151 68.5682C364.511 68.3864 364.897 68.2519 365.31 68.1648C365.727 68.0739 366.142 68.0038 366.555 67.9545C367.093 67.8864 367.53 67.8333 367.867 67.7955C368.204 67.7576 368.458 67.6951 368.628 67.608C368.799 67.5208 368.903 67.3712 368.941 67.1591V67.1136C369.032 66.5568 368.958 66.1231 368.719 65.8125C368.481 65.4981 368.055 65.3409 367.441 65.3409C366.805 65.3409 366.272 65.4811 365.844 65.7614C365.416 66.0417 365.1 66.3409 364.896 66.6591L363.714 66.2045C364.024 65.6742 364.396 65.2614 364.827 64.9659C365.259 64.6667 365.712 64.4583 366.185 64.3409C366.659 64.2197 367.115 64.1591 367.555 64.1591C367.835 64.1591 368.151 64.1932 368.503 64.2614C368.856 64.3258 369.185 64.4602 369.492 64.6648C369.803 64.8693 370.036 65.178 370.191 65.5909C370.35 66.0038 370.373 66.5568 370.259 67.25L369.305 73H367.964L368.168 71.8182H368.1C367.979 72.0076 367.793 72.2102 367.543 72.4261C367.297 72.642 366.985 72.8258 366.606 72.9773C366.231 73.1288 365.789 73.2045 365.282 73.2045ZM365.668 72C366.199 72 366.663 71.8958 367.06 71.6875C367.462 71.4792 367.784 71.2102 368.026 70.8807C368.272 70.5511 368.426 70.2045 368.486 69.8409L368.691 68.6136C368.623 68.6818 368.488 68.7443 368.288 68.8011C368.087 68.8542 367.86 68.9015 367.606 68.9432C367.356 68.9811 367.111 69.0152 366.873 69.0455C366.638 69.072 366.449 69.0947 366.305 69.1136C365.949 69.1591 365.61 69.233 365.288 69.3352C364.969 69.4337 364.7 69.5833 364.481 69.7841C364.265 69.9811 364.13 70.25 364.077 70.5909C363.998 71.0568 364.11 71.4091 364.413 71.6477C364.716 71.8826 365.134 72 365.668 72ZM371.769 76.2727C371.542 76.2727 371.341 76.2538 371.167 76.2159C370.996 76.1818 370.879 76.1477 370.815 76.1136L371.36 74.9318C371.671 75.0152 371.947 75.0398 372.19 75.0057C372.436 74.9754 372.669 74.8561 372.888 74.6477C373.112 74.4432 373.345 74.1212 373.587 73.6818L373.962 73L372.212 64.2727H373.61L374.86 71.25H374.951L378.519 64.2727H380.03L374.678 74.2614C374.428 74.7273 374.154 75.108 373.854 75.4034C373.555 75.6989 373.231 75.9167 372.883 76.0568C372.534 76.2008 372.163 76.2727 371.769 76.2727ZM384.05 61.3636L382.55 69.7273H381.232L382.505 61.3636H384.05ZM381.505 73.0909C381.217 73.0909 380.977 72.9924 380.783 72.7955C380.59 72.5947 380.49 72.3523 380.482 72.0682C380.478 71.7841 380.579 71.5473 380.783 71.358C380.988 71.1648 381.228 71.0682 381.505 71.0682C381.785 71.0682 382.028 71.1667 382.232 71.3636C382.437 71.5606 382.535 71.7955 382.528 72.0682C382.524 72.2576 382.475 72.4299 382.38 72.5852C382.289 72.7405 382.166 72.8636 382.011 72.9545C381.859 73.0455 381.691 73.0909 381.505 73.0909Z" fill="#F4E1E1"/>
<defs>
<clipPath id="clip0_45_190">
<rect width="91.1142" height="92" fill="white"/>
</clipPath>
<clipPath id="clip1_45_190">
<rect width="91.1142" height="92" fill="white"/>
</clipPath>
<clipPath id="clip2_45_190">
<rect width="47.3875" height="37.0457" fill="white" transform="translate(21.8633 27.4771)"/>
</clipPath>
<clipPath id="clip3_45_190">
<rect width="47.3875" height="37.0457" fill="white" transform="translate(21.8633 27.4771)"/>
</clipPath>
<clipPath id="clip4_45_190">
<rect width="47.3875" height="37.0457" fill="white" transform="translate(21.8633 27.4771)"/>
</clipPath>
<clipPath id="clip5_45_190">
<rect width="47.3875" height="37.0457" fill="white" transform="translate(21.8633 27.4771)"/>
</clipPath>
<clipPath id="clip6_45_190">
<rect width="47.3875" height="37.0457" fill="white" transform="translate(21.8633 27.4771)"/>
</clipPath>
<clipPath id="clip7_45_190">
<rect width="47.3875" height="37.0457" fill="white" transform="translate(21.8633 27.4771)"/>
</clipPath>
<clipPath id="clip8_45_190">
<rect width="47.3875" height="37.0457" fill="white" transform="translate(21.8633 27.4771)"/>
</clipPath>
</defs>
</svg>
